<svg id="visual" viewBox="0 0 960 540" width="960" height="540" xmlns="http://www.w3.org/2000/svg" xmlns:xlink="http://www.w3.org/1999/xlink" version="1.1"><path d="M0 201L17.8 203.5C35.7 206 71.3 211 106.8 207.3C142.3 203.7 177.7 191.3 213.2 184C248.7 176.7 284.3 174.3 320 176.7C355.7 179 391.3 186 426.8 187.5C462.3 189 497.7 185 533.2 178C568.7 171 604.3 161 640 156.7C675.7 152.3 711.3 153.7 746.8 164.5C782.3 175.3 817.7 195.7 853.2 196C888.7 196.3 924.3 176.7 942.2 166.8L960 157L960 0L942.2 0C924.3 0 888.7 0 853.2 0C817.7 0 782.3 0 746.8 0C711.3 0 675.7 0 640 0C604.3 0 568.7 0 533.2 0C497.7 0 462.3 0 426.8 0C391.3 0 355.7 0 320 0C284.3 0 248.7 0 213.2 0C177.7 0 142.3 0 106.8 0C71.3 0 35.7 0 17.8 0L0 0Z" fill="#4a00e0"></path><path d="M0 136L17.8 139.5C35.7 143 71.3 150 106.8 148.3C142.3 146.7 177.7 136.3 213.2 135.5C248.7 134.7 284.3 143.3 320 144.2C355.7 145 391.3 138 426.8 137.3C462.3 136.7 497.7 142.3 533.2 143.2C568.7 144 604.3 140 640 138.2C675.7 136.3 711.3 136.7 746.8 138.5C782.3 140.3 817.7 143.7 853.2 145.2C888.7 146.7 924.3 146.3 942.2 146.2L960 146L960 0L942.2 0C924.3 0 888.7 0 853.2 0C817.7 0 782.3 0 746.8 0C711.3 0 675.7 0 640 0C604.3 0 568.7 0 533.2 0C497.7 0 462.3 0 426.8 0C391.3 0 355.7 0 320 0C284.3 0 248.7 0 213.2 0C177.7 0 142.3 0 106.8 0C71.3 0 35.7 0 17.8 0L0 0Z" fill="#5c0ae0"></path><path d="M0 145L17.8 140.3C35.7 135.7 71.3 126.3 106.8 121C142.3 115.7 177.7 114.3 213.2 118.3C248.7 122.3 284.3 131.7 320 131.5C355.7 131.3 391.3 121.7 426.8 118.7C462.3 115.7 497.7 119.3 533.2 125.5C568.7 131.7 604.3 140.3 640 136.7C675.7 133 711.3 117 746.8 115.3C782.3 113.7 817.7 126.3 853.2 130C888.7 133.7 924.3 128.3 942.2 125.7L960 123L960 0L942.2 0C924.3 0 888.7 0 853.2 0C817.7 0 782.3 0 746.8 0C711.3 0 675.7 0 640 0C604.3 0 568.7 0 533.2 0C497.7 0 462.3 0 426.8 0C391.3 0 355.7 0 320 0C284.3 0 248.7 0 213.2 0C177.7 0 142.3 0 106.8 0C71.3 0 35.7 0 17.8 0L0 0Z" fill="#6a15e1"></path><path d="M0 78L17.8 80.8C35.7 83.7 71.3 89.3 106.8 91C142.3 92.7 177.7 90.3 213.2 91C248.7 91.7 284.3 95.3 320 96.7C355.7 98 391.3 97 426.8 98.3C462.3 99.7 497.7 103.3 533.2 99.5C568.7 95.7 604.3 84.3 640 82.2C675.7 80 711.3 87 746.8 88.5C782.3 90 817.7 86 853.2 83.5C888.7 81 924.3 80 942.2 79.5L960 79L960 0L942.2 0C924.3 0 888.7 0 853.2 0C817.7 0 782.3 0 746.8 0C711.3 0 675.7 0 640 0C604.3 0 568.7 0 533.2 0C497.7 0 462.3 0 426.8 0C391.3 0 355.7 0 320 0C284.3 0 248.7 0 213.2 0C177.7 0 142.3 0 106.8 0C71.3 0 35.7 0 17.8 0L0 0Z" fill="#771de1"></path><path d="M0 55L17.8 55.2C35.7 55.3 71.3 55.7 106.8 55.8C142.3 56 177.7 56 213.2 56C248.7 56 284.3 56 320 58.2C355.7 60.3 391.3 64.7 426.8 64.2C462.3 63.7 497.7 58.3 533.2 58.5C568.7 58.7 604.3 64.3 640 63.7C675.7 63 711.3 56 746.8 55.5C782.3 55 817.7 61 853.2 61.3C888.7 61.7 924.3 56.3 942.2 53.7L960 51L960 0L942.2 0C924.3 0 888.7 0 853.2 0C817.7 0 782.3 0 746.8 0C711.3 0 675.7 0 640 0C604.3 0 568.7 0 533.2 0C497.7 0 462.3 0 426.8 0C391.3 0 355.7 0 320 0C284.3 0 248.7 0 213.2 0C177.7 0 142.3 0 106.8 0C71.3 0 35.7 0 17.8 0L0 0Z" fill="#8325e2"></path><path d="M0 24L17.8 26.8C35.7 29.7 71.3 35.3 106.8 37.3C142.3 39.3 177.7 37.7 213.2 37.7C248.7 37.7 284.3 39.3 320 40.3C355.7 41.3 391.3 41.7 426.8 42.8C462.3 44 497.7 46 533.2 42.8C568.7 39.7 604.3 31.3 640 28.5C675.7 25.7 711.3 28.3 746.8 31.7C782.3 35 817.7 39 853.2 41.7C888.7 44.3 924.3 45.7 942.2 46.3L960 47L960 0L942.2 0C924.3 0 888.7 0 853.2 0C817.7 0 782.3 0 746.8 0C711.3 0 675.7 0 640 0C604.3 0 568.7 0 533.2 0C497.7 0 462.3 0 426.8 0C391.3 0 355.7 0 320 0C284.3 0 248.7 0 213.2 0C177.7 0 142.3 0 106.8 0C71.3 0 35.7 0 17.8 0L0 0Z" fill="#8e2de2"></path></svg>